# xmcd CD database file
# Copyright (C) 1993-1998 Ti Kan
#
# Track frame offsets:
#	150
#	17388
#	19250
#	36050
#	54313
#	78263
#	99100
#	107913
#	130913
#	152613
#	175488
#	196025
#	199550
#	219425
#
# Disc length: 3040 seconds
#
# Revision: 1
# Processed by: cddbd v1.4b41PL1 Copyright (c) Steve Scherf et al.
# Submitted via: NotifyCDPlayer(CDDB) 1.51.3
#
DISCID=a40bde0e
DTITLE=張小雯(Sharon Chang) - 生活就是...
DYEAR=1900
DGENRE=
TTITLE0=生活就是
TTITLE1=合鳴
TTITLE2=請聽我談情說愛（与鄧安寧合唱）
TTITLE3=星期天
TTITLE4=原諒我
TTITLE5=不要隨便說掰掰
TTITLE6=原諒我（移情）
TTITLE7=花的心事
TTITLE8=等你長大
TTITLE9=做人真的很不容易
TTITLE10=都是天氣的錯
TTITLE11=自由是什麼
TTITLE12=親愛的包袱
TTITLE13=祝你有個好夢
EXTD=
EXTT0=
EXTT1=
EXTT2=
EXTT3=
EXTT4=
EXTT5=
EXTT6=
EXTT7=
EXTT8=
EXTT9=
EXTT10=
EXTT11=
EXTT12=
EXTT13=
PLAYORDER=
